<svg width="25" height="25" viewBox="0 0 25 25" fill="none" xmlns="http://www.w3.org/2000/svg">
<path d="M15.5 2.24219H6.5C5.96957 2.24219 5.46086 2.4529 5.08579 2.82797C4.71071 3.20305 4.5 3.71175 4.5 4.24219V20.2422C4.5 20.7726 4.71071 21.2813 5.08579 21.6564C5.46086 22.0315 5.96957 22.2422 6.5 22.2422H18.5C19.0304 22.2422 19.5391 22.0315 19.9142 21.6564C20.2893 21.2813 20.5 20.7726 20.5 20.2422V7.24219L15.5 2.24219Z" stroke="#D4AF37" stroke-width="2" stroke-linecap="round" stroke-linejoin="round"/>
<path d="M14.5 2.24219V6.24219C14.5 6.77262 14.7107 7.28133 15.0858 7.6564C15.4609 8.03147 15.9696 8.24219 16.5 8.24219H20.5" stroke="#D4AF37" stroke-width="2" stroke-linecap="round" stroke-linejoin="round"/>
<path d="M10.5 9.24219H8.5" stroke="#D4AF37" stroke-width="2" stroke-linecap="round" stroke-linejoin="round"/>
<path d="M16.5 13.2422H8.5" stroke="#D4AF37" stroke-width="2" stroke-linecap="round" stroke-linejoin="round"/>
<path d="M16.5 17.2422H8.5" stroke="#D4AF37" stroke-width="2" stroke-linecap="round" stroke-linejoin="round"/>
</svg>
