<svg width="77" height="74" viewBox="0 0 77 74" fill="none" xmlns="http://www.w3.org/2000/svg">
<g filter="url(#filter0_d_42_4822)">
<mask id="path-1-inside-1_42_4822" fill="white">
<path d="M10.6992 37C10.6992 22.0883 22.7875 10 37.6992 10H39.6992C54.6109 10 66.6992 22.0883 66.6992 37C66.6992 51.9117 54.6109 64 39.6992 64H37.6992C22.7875 64 10.6992 51.9117 10.6992 37Z"/>
</mask>
<path d="M10.6992 37C10.6992 22.0883 22.7875 10 37.6992 10H39.6992C54.6109 10 66.6992 22.0883 66.6992 37C66.6992 51.9117 54.6109 64 39.6992 64H37.6992C22.7875 64 10.6992 51.9117 10.6992 37Z" fill="#D4AF37" fill-opacity="0.2" shape-rendering="crispEdges"/>
<path d="M37.6992 10V11H39.6992V10V9H37.6992V10ZM39.6992 64V63H37.6992V64V65H39.6992V64ZM37.6992 64V63C23.3398 63 11.6992 51.3594 11.6992 37H10.6992H9.69922C9.69922 52.464 22.2352 65 37.6992 65V64ZM66.6992 37H65.6992C65.6992 51.3594 54.0586 63 39.6992 63V64V65C55.1632 65 67.6992 52.464 67.6992 37H66.6992ZM39.6992 10V11C54.0586 11 65.6992 22.6406 65.6992 37H66.6992H67.6992C67.6992 21.536 55.1632 9 39.6992 9V10ZM37.6992 10V9C22.2352 9 9.69922 21.536 9.69922 37H10.6992H11.6992C11.6992 22.6406 23.3398 11 37.6992 11V10Z" fill="#D4AF37" fill-opacity="0.2" mask="url(#path-1-inside-1_42_4822)"/>
<path d="M48.4999 34.9995C48.9566 37.2408 48.631 39.5709 47.5777 41.6013C46.5243 43.6317 44.8067 45.2396 42.7113 46.1568C40.616 47.0741 38.2695 47.2452 36.0631 46.6419C33.8568 46.0385 31.924 44.6969 30.5871 42.8409C29.2502 40.985 28.59 38.7268 28.7165 36.4429C28.843 34.159 29.7487 31.9876 31.2825 30.2907C32.8162 28.5938 34.8854 27.4739 37.1449 27.118C39.4043 26.762 41.7176 27.1914 43.6988 28.3345" stroke="#D4AF37" stroke-width="2" stroke-linecap="round" stroke-linejoin="round"/>
<path d="M35.6992 36L38.6992 39L48.6992 29" stroke="#D4AF37" stroke-width="2" stroke-linecap="round" stroke-linejoin="round"/>
</g>
<defs>
<filter id="filter0_d_42_4822" x="0.699219" y="0" width="76" height="74" filterUnits="userSpaceOnUse" color-interpolation-filters="sRGB">
<feFlood flood-opacity="0" result="BackgroundImageFix"/>
<feColorMatrix in="SourceAlpha" type="matrix" values="0 0 0 0 0 0 0 0 0 0 0 0 0 0 0 0 0 0 127 0" result="hardAlpha"/>
<feOffset/>
<feGaussianBlur stdDeviation="5"/>
<feComposite in2="hardAlpha" operator="out"/>
<feColorMatrix type="matrix" values="0 0 0 0 0.831373 0 0 0 0 0.686275 0 0 0 0 0.215686 0 0 0 0.2 0"/>
<feBlend mode="normal" in2="BackgroundImageFix" result="effect1_dropShadow_42_4822"/>
<feBlend mode="normal" in="SourceGraphic" in2="effect1_dropShadow_42_4822" result="shape"/>
</filter>
</defs>
</svg>
