<svg width="25" height="25" viewBox="0 0 25 25" fill="none" xmlns="http://www.w3.org/2000/svg">
<path d="M14.332 17.2164C14.5385 17.3113 14.7712 17.333 14.9917 17.2779C15.2122 17.2228 15.4073 17.0943 15.545 16.9134L15.9 16.4484C16.0863 16.2 16.3279 15.9984 16.6056 15.8596C16.8833 15.7207 17.1895 15.6484 17.5 15.6484H20.5C21.0304 15.6484 21.5391 15.8592 21.9142 16.2342C22.2893 16.6093 22.5 17.118 22.5 17.6484V20.6484C22.5 21.1789 22.2893 21.6876 21.9142 22.0627C21.5391 22.4377 21.0304 22.6484 20.5 22.6484C15.7261 22.6484 11.1477 20.752 7.77208 17.3764C4.39642 14.0007 2.5 9.42233 2.5 4.64844C2.5 4.118 2.71071 3.6093 3.08579 3.23422C3.46086 2.85915 3.96957 2.64844 4.5 2.64844H7.5C8.03043 2.64844 8.53914 2.85915 8.91421 3.23422C9.28929 3.6093 9.5 4.118 9.5 4.64844V7.64844C9.5 7.95893 9.42771 8.26515 9.28885 8.54286C9.15 8.82058 8.94839 9.06214 8.7 9.24844L8.232 9.59944C8.04842 9.73961 7.91902 9.93902 7.86579 10.1638C7.81256 10.3886 7.83878 10.6248 7.94 10.8324C9.30668 13.6083 11.5544 15.8532 14.332 17.2164Z" stroke="#D4AF37" stroke-width="2" stroke-linecap="round" stroke-linejoin="round"/>
</svg>
