<svg width="25" height="25" viewBox="0 0 25 25" fill="none" xmlns="http://www.w3.org/2000/svg">
<path d="M20.5 10.6484C20.5 15.6414 14.961 20.8414 13.101 22.4474C12.9277 22.5777 12.7168 22.6482 12.5 22.6482C12.2832 22.6482 12.0723 22.5777 11.899 22.4474C10.039 20.8414 4.5 15.6414 4.5 10.6484C4.5 8.52671 5.34285 6.49187 6.84315 4.99158C8.34344 3.49129 10.3783 2.64844 12.5 2.64844C14.6217 2.64844 16.6566 3.49129 18.1569 4.99158C19.6571 6.49187 20.5 8.52671 20.5 10.6484Z" stroke="#D4AF37" stroke-width="2" stroke-linecap="round" stroke-linejoin="round"/>
<path d="M12.5 13.6484C14.1569 13.6484 15.5 12.3053 15.5 10.6484C15.5 8.99158 14.1569 7.64844 12.5 7.64844C10.8431 7.64844 9.5 8.99158 9.5 10.6484C9.5 12.3053 10.8431 13.6484 12.5 13.6484Z" stroke="#D4AF37" stroke-width="2" stroke-linecap="round" stroke-linejoin="round"/>
</svg>
