<svg width="25" height="25" viewBox="0 0 25 25" fill="none" xmlns="http://www.w3.org/2000/svg">
<path d="M12.0248 2.94333C12.0687 2.85479 12.1364 2.78026 12.2203 2.72816C12.3042 2.67605 12.4011 2.64844 12.4998 2.64844C12.5986 2.64844 12.6955 2.67605 12.7794 2.72816C12.8633 2.78026 12.931 2.85479 12.9748 2.94333L15.2848 7.62233C15.437 7.9303 15.6617 8.19674 15.9395 8.39878C16.2173 8.60083 16.54 8.73244 16.8798 8.78233L22.0458 9.53833C22.1437 9.55251 22.2357 9.5938 22.3113 9.65753C22.387 9.72126 22.4433 9.80488 22.4739 9.89894C22.5045 9.993 22.5081 10.0937 22.4844 10.1898C22.4607 10.2858 22.4107 10.3733 22.3398 10.4423L18.6038 14.0803C18.3575 14.3204 18.1731 14.6168 18.0667 14.944C17.9602 15.2711 17.9349 15.6192 17.9928 15.9583L18.8748 21.0983C18.8921 21.1962 18.8816 21.2969 18.8443 21.389C18.8071 21.4811 18.7448 21.5609 18.6644 21.6193C18.584 21.6777 18.4888 21.7123 18.3897 21.7192C18.2906 21.7261 18.1915 21.705 18.1038 21.6583L13.4858 19.2303C13.1816 19.0706 12.843 18.9871 12.4993 18.9871C12.1557 18.9871 11.8171 19.0706 11.5128 19.2303L6.89585 21.6583C6.80818 21.7047 6.70924 21.7256 6.6103 21.7186C6.51135 21.7116 6.41636 21.6769 6.33614 21.6185C6.25592 21.5602 6.19368 21.4805 6.1565 21.3886C6.11933 21.2966 6.1087 21.196 6.12585 21.0983L7.00685 15.9593C7.06504 15.6201 7.03983 15.2717 6.93338 14.9444C6.82694 14.617 6.64246 14.3205 6.39585 14.0803L2.65985 10.4433C2.58844 10.3744 2.53784 10.2867 2.51381 10.1904C2.48978 10.0941 2.49328 9.99295 2.52393 9.89852C2.55457 9.80409 2.61111 9.72017 2.68712 9.65631C2.76313 9.59246 2.85555 9.55123 2.95385 9.53733L8.11885 8.78233C8.4591 8.73283 8.78224 8.60139 9.06043 8.39932C9.33863 8.19725 9.56355 7.9306 9.71585 7.62233L12.0248 2.94333Z" fill="#D4AF37" stroke="#D4AF37" stroke-width="2" stroke-linecap="round" stroke-linejoin="round"/>
</svg>
