<svg width="25" height="25" viewBox="0 0 25 25" fill="none" xmlns="http://www.w3.org/2000/svg">
<path d="M17.75 2.24219H7.75C4.98858 2.24219 2.75 4.48076 2.75 7.24219V17.2422C2.75 20.0036 4.98858 22.2422 7.75 22.2422H17.75C20.5114 22.2422 22.75 20.0036 22.75 17.2422V7.24219C22.75 4.48076 20.5114 2.24219 17.75 2.24219Z" stroke="white" stroke-width="2" stroke-linecap="round" stroke-linejoin="round"/>
<path d="M16.7497 11.6125C16.8731 12.4447 16.731 13.2947 16.3435 14.0415C15.956 14.7883 15.3429 15.3939 14.5913 15.7722C13.8398 16.1504 12.9882 16.2821 12.1575 16.1484C11.3268 16.0148 10.5595 15.6226 9.96455 15.0276C9.36962 14.4327 8.97744 13.6654 8.84377 12.8347C8.71011 12.004 8.84177 11.1524 9.22003 10.4009C9.59829 9.64934 10.2039 9.03623 10.9507 8.64873C11.6975 8.26123 12.5475 8.11908 13.3797 8.24249C14.2286 8.36837 15.0146 8.76395 15.6214 9.3708C16.2282 9.97764 16.6238 10.7636 16.7497 11.6125Z" stroke="white" stroke-width="2" stroke-linecap="round" stroke-linejoin="round"/>
<path d="M18.25 6.74219H18.26" stroke="white" stroke-width="2" stroke-linecap="round" stroke-linejoin="round"/>
</svg>
