<svg width="13" height="13" viewBox="0 0 13 13" fill="none" xmlns="http://www.w3.org/2000/svg">
<path d="M6.2817 2.13333C6.30328 2.09413 6.33499 2.06145 6.37351 2.03868C6.41203 2.01592 6.45596 2.00391 6.5007 2.00391C6.54545 2.00391 6.58937 2.01592 6.62789 2.03868C6.66641 2.06145 6.69812 2.09413 6.7197 2.13333L8.1957 4.93533C8.2309 5.00021 8.28003 5.05649 8.33955 5.10014C8.39908 5.14378 8.46754 5.1737 8.54 5.18776C8.61246 5.20181 8.68714 5.19965 8.75867 5.18142C8.8302 5.16319 8.8968 5.12935 8.9537 5.08233L11.0922 3.25033C11.1333 3.21694 11.1838 3.19744 11.2367 3.19463C11.2895 3.19182 11.3419 3.20585 11.3862 3.2347C11.4306 3.26355 11.4647 3.30573 11.4835 3.35517C11.5024 3.40461 11.5051 3.45876 11.4912 3.50983L10.0742 8.63283C10.0453 8.73766 9.98296 8.83021 9.8967 8.89643C9.81045 8.96266 9.70495 8.99896 9.5962 8.99983H3.4057C3.29687 8.99907 3.19126 8.96282 3.1049 8.89658C3.01854 8.83035 2.95615 8.73774 2.9272 8.63283L1.5107 3.51033C1.49683 3.45926 1.49951 3.40511 1.51837 3.35567C1.53723 3.30623 1.57129 3.26405 1.61565 3.2352C1.66001 3.20635 1.71238 3.19232 1.76522 3.19513C1.81806 3.19794 1.86865 3.21744 1.9097 3.25083L4.0477 5.08283C4.1046 5.12985 4.1712 5.16369 4.24273 5.18192C4.31426 5.20015 4.38894 5.20231 4.4614 5.18826C4.53386 5.17421 4.60232 5.14428 4.66185 5.10064C4.72138 5.05699 4.7705 5.00071 4.8057 4.93583L6.2817 2.13333Z" stroke="#D4AF37" stroke-linecap="round" stroke-linejoin="round"/>
<path d="M3 11H10" stroke="#D4AF37" stroke-linecap="round" stroke-linejoin="round"/>
</svg>
