<svg xmlns="http://www.w3.org/2000/svg" width="77" height="74" fill="none" viewBox="0 0 77 74"><g filter="url(#a)"><mask id="b" fill="#fff"><path d="M10.148 37c0-14.912 12.089-27 27-27h2c14.912 0 27 12.088 27 27s-12.088 27-27 27h-2c-14.911 0-27-12.088-27-27"/></mask><path fill="#d4af37" fill-opacity=".2" d="M10.148 37c0-14.912 12.089-27 27-27h2c14.912 0 27 12.088 27 27s-12.088 27-27 27h-2c-14.911 0-27-12.088-27-27" shape-rendering="crispEdges"/><path fill="#d4af37" fill-opacity=".2" d="M37.148 10v1h2V9h-2zm2 54v-1h-2v2h2zm-2 0v-1c-14.359 0-26-11.64-26-26h-2c0 15.464 12.537 28 28 28zm29-27h-1c0 14.36-11.64 26-26 26v2c15.464 0 28-12.536 28-28zm-27-27v1c14.36 0 26 11.64 26 26h2c0-15.464-12.536-28-28-28zm-2 0V9c-15.464 0-28 12.536-28 28h2c0-14.36 11.641-26 26-26z" mask="url(#b)"/><path stroke="#d4af37" stroke-linecap="round" stroke-linejoin="round" stroke-width="2" d="M28.148 34.5a5.5 5.5 0 0 1 9.591-3.675.56.56 0 0 0 .819 0 5.49 5.49 0 0 1 9.59 3.676c0 2.29-1.5 4-3 5.5l-5.492 5.313a2 2 0 0 1-3 .019L31.148 40c-1.5-1.5-3-3.2-3-5.5"/></g><defs><filter id="a" width="76" height="74" x=".148" y="0" color-interpolation-filters="sRGB" filterUnits="userSpaceOnUse"><feFlood flood-opacity="0" result="BackgroundImageFix"/><feColorMatrix in="SourceAlpha" result="hardAlpha" values="0 0 0 0 0 0 0 0 0 0 0 0 0 0 0 0 0 0 127 0"/><feOffset/><feGaussianBlur stdDeviation="5"/><feComposite in2="hardAlpha" operator="out"/><feColorMatrix values="0 0 0 0 0.831373 0 0 0 0 0.686275 0 0 0 0 0.215686 0 0 0 0.2 0"/><feBlend in2="BackgroundImageFix" result="effect1_dropShadow_42_4803"/><feBlend in="SourceGraphic" in2="effect1_dropShadow_42_4803" result="shape"/></filter></defs></svg>