<svg width="144" height="53" viewBox="0 0 144 53" fill="none" xmlns="http://www.w3.org/2000/svg">
<g>
<path d="M57.3658 1.975C57.3158 1.55 57.5908 0.93 57.9758 0.6C58.3608 0.27 59.1958 0 59.8258 0C60.4758 0 61.1908 0.435 61.4758 1C61.8091 1.66667 61.8091 2.33333 61.4758 3C61.2008 3.55 60.4708 4.005 59.8508 4.01C59.2308 4.015 58.4408 3.73 58.0908 3.385C57.7458 3.035 57.4158 2.4 57.3658 1.975Z" fill="#B2B2B2"/>
<path d="M105.866 1.975C105.816 1.55 106.091 0.93 106.476 0.6C106.861 0.27 107.696 0 108.326 0C108.976 0 109.691 0.435 109.976 1C110.309 1.66667 110.309 2.33333 109.976 3C109.701 3.55 108.971 4.005 108.351 4.01C107.731 4.015 106.941 3.73 106.591 3.385C106.246 3.035 105.916 2.4 105.866 1.975Z" fill="#B2B2B2"/>
<path d="M7.9658 12.75C8.5708 11.375 9.4408 9.39 9.8958 8.34C10.3508 7.295 10.8558 6.62 11.0208 6.84C11.1808 7.065 12.0808 9 13.0208 11.135C13.9608 13.275 14.7808 15.015 14.8508 15.01C14.9208 15.005 15.7608 13.31 16.7258 11.25C18.4158 7.63 18.5358 7.5 20.2258 7.5C21.1858 7.5 21.9808 7.555 21.9908 7.625C21.9958 7.695 20.4208 11.07 18.4908 15.125C16.5558 19.18 14.7508 22.39 14.4758 22.25C14.2008 22.11 13.9808 21.83 13.9858 21.625C13.9958 21.42 13.2858 19.675 10.8308 14.25L6.8858 22.75L3.4558 16C1.5708 12.285 0.0158003 8.855 0.000800267 8.375C-0.0191997 7.69 0.3308 7.525 1.6008 7.625C3.0908 7.74 3.3758 8.06 6.8608 15.25L7.9658 12.75Z" fill="#B2B2B2"/>
<path d="M24.8558 10C25.3758 9.31 26.5708 8.355 27.5108 7.875C28.4558 7.395 29.6208 7 30.1008 7C30.5808 7 31.8208 7.325 32.8508 7.725C33.8808 8.125 35.1208 9.025 35.6008 9.725C36.0808 10.425 36.6458 12.015 37.2258 15.515L32.1008 15.51C29.0108 15.505 26.9758 15.7 26.9758 16C26.9758 16.275 27.5358 17.06 28.2258 17.75C28.9108 18.435 30.0358 19 30.7258 19C31.4358 19 32.4608 18.45 33.1008 17.725C34.1308 16.56 34.3458 16.505 35.6158 17.1C36.3808 17.46 37.0008 17.86 36.9958 18C36.9858 18.14 36.6458 18.755 36.2308 19.375C35.8158 19.995 34.8008 20.835 33.9758 21.25C33.1508 21.665 31.3508 22 29.9758 22C27.9508 22 27.1808 21.735 25.9458 20.625C25.1008 19.87 24.1708 18.46 23.8808 17.5C23.5858 16.54 23.4758 14.735 23.6308 13.5C23.7858 12.26 24.3408 10.685 24.8558 10Z" fill="#B2B2B2"/>
<path d="M43.4758 7.98C43.6458 8.35 44.2808 8.285 45.4758 7.78C46.4358 7.37 47.6208 7.03 48.1008 7.02C48.5808 7.01 49.7058 7.345 50.6008 7.765C51.4958 8.19 52.6608 9.145 53.1958 9.89C53.7308 10.64 54.3408 12.04 54.5508 13C54.7708 14.005 54.7058 15.6 54.3958 16.75C54.0958 17.85 53.1158 19.48 52.2158 20.375C50.9008 21.68 50.1708 22 48.5258 22C47.3958 22 45.8008 21.665 43.4758 20.5V29.5H40.4758L40.7258 7.75L41.9758 7.595C42.6608 7.51 43.3358 7.685 43.4758 7.98Z" fill="#B2B2B2"/>
<path d="M65.8108 11C66.5508 9.765 67.8458 8.355 68.6908 7.875C69.5358 7.395 70.7308 7 71.3508 7C71.9708 7 73.3058 7.395 74.3208 7.875C75.3358 8.355 76.5708 9.425 77.0708 10.25C77.5658 11.075 77.9708 12.595 77.9758 15.5H73.2258C68.8108 15.5 68.4758 15.57 68.4758 16.5C68.4758 17.05 68.9808 17.84 69.6008 18.255C70.2208 18.67 71.2308 19.005 71.8508 19.005C72.4708 19 73.5958 18.465 74.3508 17.81C75.5108 16.8 75.9058 16.705 76.8658 17.185C77.4908 17.495 77.9958 18.03 77.9908 18.375C77.9808 18.72 77.1858 19.675 76.2258 20.5C75.2608 21.325 73.8558 22.025 73.1008 22.055C72.3458 22.085 71.1608 22.06 70.4758 22.005C69.7858 21.945 68.6058 21.58 67.8508 21.2C67.0808 20.81 66.0408 19.56 65.4858 18.375C64.9408 17.205 64.4908 15.575 64.4808 14.75C64.4758 13.925 65.0708 12.24 65.8108 11Z" fill="#B2B2B2"/>
<path d="M84.7258 7.925C85.0458 8.23 85.6758 8.145 86.4758 7.695C87.1808 7.29 88.2708 7.11 88.9758 7.28C89.6608 7.445 90.3108 7.68 90.4208 7.8C90.5258 7.92 90.4008 8.635 90.1408 9.385C89.7508 10.535 89.4208 10.73 88.0758 10.625C87.0608 10.545 86.2458 10.8 85.8508 11.325C85.5008 11.785 85.1158 14.27 84.7258 21.75H81.7258V7.75L82.9758 7.6C83.6608 7.515 84.4508 7.665 84.7258 7.925Z" fill="#B2B2B2"/>
<path d="M95.1008 8.42C95.7208 8.1 96.7858 7.67 97.4758 7.465C98.1608 7.255 98.9508 7.07 99.2258 7.045C99.5008 7.025 100.571 7.23 101.601 7.505C103.416 7.985 103.476 8.07 103.476 12.5L102.101 11.485C101.346 10.925 100.096 10.475 99.3258 10.485C98.5158 10.495 97.4158 11.025 96.7008 11.75C95.8708 12.595 95.4758 13.565 95.4758 14.75C95.4758 15.95 95.8708 16.895 96.7258 17.75C97.4108 18.435 98.4808 18.995 99.1008 18.985C99.7208 18.975 100.956 18.525 103.476 17V19.25C103.476 20.805 103.246 21.575 102.726 21.75C102.311 21.89 100.796 22 99.3508 22C97.6008 21.9967 96.1841 21.6633 95.1008 21C94.2058 20.45 93.1108 19.27 92.6708 18.375C92.2258 17.48 91.8558 15.85 91.8458 14.75C91.8358 13.595 92.2808 11.96 92.9008 10.875C93.4908 9.845 94.4808 8.74 95.1008 8.42Z" fill="#B2B2B2"/>
<path d="M117.226 7.93C117.541 8.23 118.186 8.15 118.976 7.705C119.661 7.32 120.621 7.005 121.101 7.005C121.581 7 122.546 7.28 123.246 7.625C123.941 7.97 124.841 8.98 125.246 9.875C125.766 11.035 125.941 12.975 125.726 21.75H122.726L122.571 16.75C122.481 13.78 122.176 11.485 121.821 11.105C121.496 10.745 120.661 10.455 119.976 10.455C119.286 10.455 118.456 10.745 118.131 11.105C117.776 11.485 117.471 13.78 117.226 21.75L115.601 21.875C114.276 21.975 113.926 21.79 113.706 20.875C113.556 20.255 113.501 17.05 113.726 7.75L115.226 7.605C116.051 7.525 116.951 7.67 117.226 7.93Z" fill="#B2B2B2"/>
<path d="M130.631 10.185C131.206 9.325 132.361 8.26 133.201 7.82C134.041 7.385 135.176 7.02 135.726 7.015C136.276 7.01 137.401 7.345 138.226 7.755C139.256 8.27 139.881 8.34 140.226 7.985C140.501 7.7 141.286 7.53 143.226 7.75L143.351 15.875C143.446 22.205 143.311 24.385 142.726 25.75C142.311 26.71 141.356 27.885 140.601 28.35C139.846 28.82 138.326 29.3 137.226 29.415C136.016 29.545 134.536 29.31 133.476 28.825C132.511 28.38 131.331 27.34 130.851 26.51C130.371 25.68 129.976 24.665 129.976 24.25C129.976 23.75 130.476 23.5 131.476 23.5C132.541 23.5 133.191 23.86 133.726 24.75C134.321 25.745 134.876 26 136.441 26C137.521 26 138.756 25.665 139.191 25.25C139.621 24.835 139.976 23.71 139.976 22.75C139.976 21.285 139.831 21.055 139.101 21.34C138.621 21.53 137.101 21.775 135.726 21.89C133.526 22.075 133.041 21.925 131.661 20.675C130.716 19.81 129.866 18.36 129.506 17C129.181 15.765 129.061 14.075 129.246 13.25C129.431 12.425 130.056 11.045 130.631 10.185Z" fill="#B2B2B2"/>
<path d="M58.2258 21.75L58.1208 14.59L58.0158 7.435L61.2258 7.75V21.75H58.2258Z" fill="#B2B2B2"/>
<path d="M106.726 21.745L106.621 14.59L106.516 7.43L109.726 7.745V21.745H106.726Z" fill="#B2B2B2"/>
<path d="M80.2258 38.5C79.6058 38.5 79.4758 37.525 79.4758 32.75C79.4758 27.97 79.6058 27 80.2258 27C80.8508 27 80.9758 27.97 80.9758 32.75C80.9758 37.525 80.8508 38.5 80.2258 38.5Z" fill="#B2B2B2"/>
<path d="M51.7258 37C52.9608 37 52.9758 36.95 52.9758 32.75C52.9758 29.305 53.1208 28.5 53.7258 28.5C54.3258 28.5 54.4758 29.25 54.4758 32.25C54.4758 34.31 54.2508 36.56 53.9758 37.25C53.6008 38.195 53.1108 38.5 51.9758 38.5C50.9758 38.5 50.4758 38.25 50.4758 37.75C50.4758 37.285 50.9508 37 51.7258 37Z" fill="#B2B2B2"/>
<path d="M55.9408 35.285C55.9208 34.305 56.2558 33.235 56.7258 32.785C57.1808 32.355 58.2058 32 59.0108 32C60.0408 32 60.7008 32.37 61.2258 33.25C61.6408 33.935 61.8658 34.725 61.7258 35C61.5908 35.275 60.5758 35.5 59.4758 35.5C58.3758 35.5 57.4758 35.725 57.4758 36C57.4758 36.275 57.8708 36.645 58.3508 36.825C58.8308 37.005 59.6208 36.89 60.1008 36.575C60.6658 36.205 61.0658 36.175 61.2258 36.5C61.3658 36.775 61.1958 37.345 60.8508 37.77C60.5058 38.195 59.6058 38.535 58.8508 38.52C58.0958 38.51 57.1408 38.16 56.7258 37.75C56.3158 37.335 55.9608 36.23 55.9408 35.285Z" fill="#B2B2B2"/>
<path d="M63.6758 35.635C62.8808 33.92 62.3208 32.4 62.4358 32.26C62.5508 32.115 62.8308 32 63.0608 32C63.2908 32 63.8958 32.845 65.3458 35.75L66.0358 33.87C66.4158 32.83 66.8408 31.99 66.9758 31.995C67.1158 32 67.5908 32.845 68.8458 35.75L69.6608 33.875C70.1108 32.845 70.8158 32 71.2258 32C71.6408 32 71.9808 32.055 71.9858 32.125C71.9908 32.195 71.2858 33.71 68.8508 38.75L68.0358 37.115C67.5908 36.215 67.1158 35.475 66.9758 35.475C66.8408 35.475 66.3658 36.215 65.1308 38.75L63.6758 35.635Z" fill="#B2B2B2"/>
<path d="M72.4408 35.285C72.4208 34.285 72.7608 33.235 73.2558 32.76C73.7658 32.27 74.7258 32.005 75.6558 32.1C76.7258 32.205 77.3908 32.635 77.8108 33.5C78.1408 34.185 78.3158 34.92 78.1958 35.125C78.0758 35.33 77.0758 35.5 75.9758 35.5C74.5308 35.5 73.9758 35.71 73.9758 36.25C73.9758 36.715 74.4508 37 75.2258 37C75.9158 37 76.6108 36.72 76.7808 36.375C77.0158 35.885 77.2058 35.88 77.6558 36.355C78.0858 36.81 78.0408 37.155 77.4758 37.75C77.0658 38.185 76.1058 38.535 75.3508 38.52C74.5958 38.51 73.6408 38.16 73.2258 37.75C72.8158 37.335 72.4608 36.23 72.4408 35.285Z" fill="#B2B2B2"/>
<path d="M83.6008 38.335C83.1558 38.45 82.9458 37.585 82.8758 35.355L82.7708 32.215L85.5008 32.11C88.1658 32.01 88.2508 32.045 90.3758 35.75L91.3008 33.865C91.8108 32.825 92.5058 31.985 92.8508 31.99C93.1958 31.995 93.4758 32.11 93.4758 32.25C93.4758 32.385 92.4658 34.525 91.2258 37C89.9908 39.475 88.7508 41.61 88.4758 41.75C88.2008 41.885 87.8058 41.87 87.6008 41.715C87.3958 41.555 87.7308 40.545 89.4758 37.5L88.1508 34.875C87.4208 33.43 86.7458 32.53 86.6508 32.875C86.5558 33.22 86.0258 33.5 85.4758 33.5C84.6358 33.5 84.4558 33.875 84.3508 35.835C84.2808 37.19 83.9658 38.24 83.6008 38.335Z" fill="#B2B2B2"/>
<path d="M60.9808 52.245C60.6658 52.405 60.4808 50.83 60.4808 47.995V43.495H61.9808C62.8058 43.495 63.8358 43.89 64.2708 44.37C64.7058 44.855 64.9858 45.695 64.8958 46.245C64.8058 46.795 64.0008 47.585 63.1158 47.995C61.7858 48.615 61.4958 49.035 61.4908 50.37C61.4858 51.265 61.2558 52.11 60.9808 52.245Z" fill="#B2B2B2"/>
<path d="M73.4258 49.91C73.2608 47.445 73.3608 47.045 74.1808 46.89C74.6958 46.79 75.2558 46.785 75.4258 46.88C75.5908 46.975 75.3908 47.26 74.9808 47.51C74.5658 47.76 74.0908 49.045 73.6108 52.745L73.4258 49.91Z" fill="#B2B2B2"/>
<path d="M80.3808 48.04C80.3258 47.51 80.6058 46.97 81.0058 46.83C81.4008 46.695 81.9308 46.62 82.1808 46.665C82.4258 46.71 82.7058 47.03 82.8058 47.37C82.9058 47.74 82.6708 47.895 82.2308 47.745C81.8158 47.61 81.3658 47.72 81.2308 47.995C81.0908 48.27 81.5558 48.78 82.2608 49.12C83.2158 49.59 83.5058 50.065 83.3858 50.995C83.2608 52.01 82.9508 52.245 81.7708 52.245C80.9658 52.245 80.2358 51.965 80.1458 51.62C80.0308 51.2 80.3858 51.08 81.2308 51.245C81.9158 51.385 82.5908 51.27 82.7308 50.995C82.8658 50.72 82.4158 50.16 81.7308 49.745C81.0408 49.335 80.4358 48.565 80.3808 48.04Z" fill="#B2B2B2"/>
<path d="M66.1708 50.62C66.0058 49.865 66.1158 48.74 66.4158 48.12C66.8808 47.17 67.3358 47 71.4858 47.16L71.4808 49.58C71.4808 51.92 71.4258 52.005 69.8558 52.26C68.9608 52.41 67.8358 52.41 67.3558 52.26C66.8708 52.115 66.3408 51.38 66.1708 50.62Z" fill="#B2B2B2"/>
<path d="M77.8408 50.995C77.7308 51.96 77.6358 51.395 77.6358 49.745C77.6308 48.095 77.7208 47.31 77.8358 47.995C77.9458 48.685 77.9508 50.035 77.8408 50.995Z" fill="#B2B2B2"/>
<path d="M27.3758 12.35C27.3208 11.99 27.5908 11.43 27.9758 11.1C28.3608 10.77 29.5308 10.5 30.5758 10.5C31.9758 10.5 32.6058 10.765 32.9758 11.5C33.2508 12.05 33.4758 12.61 33.4758 12.75C33.4758 12.89 32.1258 13 30.4758 13C28.4008 13 27.4458 12.8 27.3758 12.35Z" fill="#060606"/>
<path d="M43.4358 14.47C43.4358 13.345 43.8158 12.285 44.4708 11.595C45.1708 10.86 46.1258 10.495 47.3708 10.485C48.5208 10.475 49.5408 10.805 50.0608 11.36C50.5208 11.85 51.0508 12.925 51.2358 13.75C51.4408 14.655 51.3058 15.82 50.9008 16.69C50.5308 17.485 49.8308 18.325 49.3508 18.565C48.8708 18.805 47.8008 19 46.9758 19C45.9208 19 45.1758 18.595 44.4608 17.625C43.8858 16.85 43.4408 15.47 43.4358 14.47Z" fill="#060606"/>
<path d="M68.3758 12.35C68.3208 11.99 68.5908 11.43 68.9758 11.1C69.3608 10.77 70.4758 10.495 71.4508 10.49C72.4258 10.485 73.5108 10.77 73.8608 11.115C74.2058 11.465 74.4908 12.03 74.4858 12.375C74.4808 12.805 73.5358 13 71.4758 13C69.4008 13 68.4458 12.8 68.3758 12.35Z" fill="#060606"/>
<path d="M132.671 15.25C132.441 13.67 132.606 12.965 133.461 11.875C134.286 10.83 134.981 10.495 136.386 10.485C137.506 10.475 138.571 10.815 139.106 11.36C139.591 11.85 140.121 13.15 140.281 14.25C140.506 15.815 140.341 16.55 139.526 17.625C138.716 18.685 138.046 19.005 136.601 19.015C135.446 19.025 134.386 18.69 133.846 18.14C133.361 17.65 132.831 16.35 132.671 15.25Z" fill="#060606"/>
<path d="M57.3908 34.085C57.3458 33.855 57.4958 33.515 57.7258 33.335C57.9558 33.15 58.3308 33 58.5608 33C58.7908 33 59.3158 33.11 59.7258 33.25C60.1358 33.39 60.4758 33.725 60.4758 34C60.4758 34.275 59.8008 34.5 58.9758 34.5C58.1508 34.5 57.4408 34.31 57.3908 34.085Z" fill="#060606"/>
<path d="M73.8908 34.085C73.8458 33.855 73.9958 33.515 74.2258 33.335C74.4558 33.15 74.8858 32.99 75.1858 32.98C75.4808 32.965 76.0658 33.315 76.4758 33.75C77.1508 34.465 77.0658 34.54 75.6008 34.52C74.7058 34.51 73.9408 34.31 73.8908 34.085Z" fill="#060606"/>
<path d="M60.8908 46.085C60.8458 45.305 60.9958 44.515 61.2258 44.335C61.4558 44.15 61.8858 44.005 62.1858 44.01C62.4808 44.01 63.0208 44.18 63.3808 44.385C63.7408 44.585 63.9658 45.31 63.8808 46C63.7608 46.955 63.4008 47.28 62.3508 47.375C61.1608 47.485 60.9658 47.31 60.8908 46.085Z" fill="#060606"/>
<path d="M66.7258 50.25C66.5858 49.56 66.7258 48.66 67.0308 48.25C67.3358 47.84 68.1258 47.5 68.7808 47.5C69.5608 47.5 70.1908 47.94 70.6008 48.765C71.1408 49.86 71.0908 50.165 70.2258 51.055C69.5508 51.75 68.8608 51.99 68.1008 51.79C67.4208 51.615 66.8758 51.005 66.7258 50.25Z" fill="#060606"/>
</g>
</svg>
