<svg width="620" height="220" viewBox="0 0 620 220" fill="none" xmlns="http://www.w3.org/2000/svg">
<g clip-path="url(#clip0_2_148)">
<path d="M155 87C157.941 89.7409 159.965 92.3526 161.891 95.875C162.427 96.8457 162.963 97.8163 163.516 98.8164C164.088 99.867 164.66 100.918 165.25 102C166.504 104.272 167.759 106.542 169.016 108.812C169.34 109.401 169.665 109.989 170 110.595C173.597 117.103 177.298 123.551 181 130C186.096 138.886 191.139 147.801 196.125 156.75C201.401 166.217 206.803 175.605 212.295 184.948C213.87 187.628 215.436 190.314 217 193C217.765 194.294 217.765 194.294 218.546 195.613C219.014 196.422 219.483 197.23 219.965 198.062C220.382 198.775 220.8 199.488 221.23 200.223C221.484 200.809 221.738 201.396 222 202C221.67 202.66 221.34 203.32 221 204C220.375 203.37 219.751 202.74 219.107 202.092C216.754 199.721 214.398 197.352 212.04 194.985C211.027 193.967 210.014 192.948 209.003 191.927C203.714 186.594 198.402 181.355 192.689 176.469C189.508 173.703 186.626 170.643 183.688 167.625C181.62 165.606 179.542 163.727 177.352 161.852C172.093 157.294 167.258 152.327 162.375 147.375C154.505 139.339 154.505 139.339 146 132C143.943 139.516 141.96 147.036 140.188 154.625C140.012 155.296 139.837 155.967 139.657 156.658C138.43 161.504 137.735 166.237 137.211 171.211C135.177 186.569 135.177 186.569 131 193C123.618 198.338 114.504 199.897 105.679 201.376C100.061 202.329 94.5398 203.675 89 205C90.2126 201.06 91.6135 197.647 93.7305 194.113C94.2783 193.189 94.8262 192.265 95.3906 191.312C95.9836 190.322 96.5766 189.332 97.1875 188.312C102.432 179.449 107.531 170.521 112.5 161.5C117.77 151.947 123.18 142.492 128.713 133.089C133.91 124.228 138.902 115.259 143.852 106.258C147.435 99.7535 151.125 93.3355 155 87Z" fill="#B2CD4A"/>
<path d="M145 131C152.895 136.428 159.32 143.128 166 149.938C168.267 152.242 170.538 154.543 172.812 156.84C173.627 157.663 173.627 157.663 174.458 158.502C177.966 162.023 181.575 165.367 185.363 168.588C188.535 171.324 191.393 174.376 194.312 177.375C196.424 179.437 198.555 181.364 200.789 183.285C205.99 187.791 210.737 192.721 215.527 197.654C216.207 198.345 216.886 199.035 217.586 199.746C218.195 200.372 218.804 200.998 219.431 201.642C220.906 203.218 220.906 203.218 223 203C223 203.99 223 204.98 223 206C178.45 206 133.9 206 88 206C88.495 205.01 88.495 205.01 89 204C91.2944 203.327 93.5443 202.766 95.875 202.25C103.195 200.541 110.31 198.4 117.439 196.019C121.976 194.53 126.25 193.524 131 193C131.098 192.331 131.196 191.662 131.297 190.973C132.588 182.68 134.439 174.565 136.416 166.417C137.04 163.834 137.654 161.25 138.266 158.664C140.452 149.427 142.666 140.201 145 131Z" fill="#DBFA5B"/>
<path d="M398 43C405.456 42.9072 405.456 42.9072 413.062 42.8125C414.617 42.7852 416.172 42.7579 417.774 42.7297C419.015 42.7222 420.256 42.7148 421.535 42.707C422.797 42.6913 424.059 42.6756 425.36 42.6594C430.719 43.1608 434.628 44.5198 438.375 48.5625C441.048 52.572 441.174 55.4916 441.203 60.2031C441.209 60.9185 441.215 61.6339 441.22 62.371C441.23 63.8875 441.236 65.4039 441.24 66.9204C441.25 69.2273 441.281 71.5332 441.312 73.8398C441.319 75.3151 441.324 76.7904 441.328 78.2656C441.34 78.9502 441.353 79.6348 441.366 80.3401C441.344 84.9612 440.441 88.0843 438 92C432.194 96.6703 427.438 97.1297 420.168 97.0977C419.003 97.0952 417.838 97.0927 416.637 97.0901C414.435 97.0764 414.435 97.0764 412.188 97.0625C407.506 97.0419 402.824 97.0213 398 97C398 79.18 398 61.36 398 43Z" fill="#060606"/>
<path d="M499 43C506.456 42.9072 506.456 42.9072 514.062 42.8125C515.617 42.7852 517.172 42.7579 518.774 42.7297C520.015 42.7222 521.256 42.7148 522.535 42.707C523.797 42.6913 525.059 42.6756 526.36 42.6594C531.719 43.1608 535.628 44.5198 539.375 48.5625C543.054 54.0816 542.261 59.9522 542.295 66.3833C542.307 67.8671 542.327 69.3509 542.357 70.8345C542.669 86.4357 542.669 86.4357 538 93C535.661 94.5042 533.709 95.1627 531 96C529.515 96.495 529.515 96.495 528 97C525.789 97.0836 523.576 97.1073 521.363 97.0977C519.608 97.0939 519.608 97.0939 517.818 97.0901C515.588 97.0764 515.588 97.0764 513.312 97.0625C508.589 97.0419 503.866 97.0213 499 97C499 79.18 499 61.36 499 43Z" fill="#050505"/>
<path d="M153 90C153.33 90 153.66 90 154 90C154.42 95.2481 153.736 99.32 152.199 104.363C149.994 111.865 148.239 119.425 146.562 127.062C145.951 129.812 145.337 132.56 144.723 135.309C144.573 135.979 144.424 136.649 144.27 137.34C143.426 141.118 142.568 144.892 141.684 148.66C141.488 149.495 141.292 150.33 141.09 151.19C140.697 152.812 140.288 154.429 139.862 156.042C138.534 161.166 137.727 166.148 137.156 171.414C135.112 186.754 135.112 186.754 131 193C123.597 198.318 114.513 199.895 105.679 201.376C100.061 202.329 94.5398 203.675 89 205C90.2126 201.06 91.6135 197.647 93.7305 194.113C94.2783 193.189 94.8262 192.265 95.3906 191.312C95.9836 190.322 96.5766 189.332 97.1875 188.312C102.432 179.449 107.531 170.521 112.5 161.5C117.769 151.949 123.178 142.497 128.708 133.096C135.167 122.081 141.32 110.901 147.489 99.7222C149.297 96.4643 151.138 93.2276 153 90Z" fill="#C8E753"/>
<path d="M291 43C296.466 42.9175 301.931 42.835 307.562 42.75C309.274 42.7136 310.985 42.6772 312.748 42.6397C314.125 42.628 315.502 42.6178 316.879 42.6094C317.577 42.5889 318.276 42.5685 318.995 42.5474C324.528 42.5435 327.536 43.9838 332 47C334.954 50.5414 334.368 55.4706 334.375 59.875C334.399 60.6652 334.424 61.4554 334.449 62.2695C334.476 67.6547 333.592 70.7407 330 75C329.01 75.495 329.01 75.495 328 76C329.835 81.7562 331.901 87.3583 334.23 92.9336C335 95 335 95 335 97C330.38 97 325.76 97 321 97C319.991 94.5866 318.993 92.1698 318 89.75C317.714 89.0681 317.428 88.3862 317.133 87.6836C315.707 84.1859 315 81.831 315 78C311.7 78 308.4 78 305 78C305 84.27 305 90.54 305 97C300.38 97 295.76 97 291 97C291 79.18 291 61.36 291 43Z" fill="#040404"/>
<path d="M188 27C193.156 26.9381 198.312 26.8762 203.625 26.8125C205.241 26.7852 206.857 26.7579 208.522 26.7297C210.449 26.7185 210.449 26.7185 212.414 26.707C213.723 26.6913 215.032 26.6756 216.381 26.6594C220.936 27.0881 224.114 28.5857 227.75 31.3125C231.996 37.045 231.545 44.2026 231 51C230.228 55.654 228.625 58.9843 224.938 62C218.272 65.7675 209.378 64.3547 202 64C202 69.61 202 75.22 202 81C197.38 81 192.76 81 188 81C188 63.18 188 45.36 188 27Z" fill="#080808"/>
<path d="M145 131C152.895 136.428 159.32 143.128 166 149.938C168.267 152.242 170.538 154.542 172.812 156.84C173.626 157.663 173.626 157.663 174.456 158.502C177.97 162.033 181.607 165.348 185.41 168.569C187.559 170.503 189.303 172.667 191 175C190.334 175.195 189.668 175.39 188.982 175.592C185.758 176.538 182.535 177.487 179.312 178.438C178.116 178.79 176.92 179.143 175.687 179.506C169.072 181.465 162.472 183.463 155.891 185.535C155.232 185.742 154.574 185.949 153.896 186.162C150.693 187.169 147.494 188.182 144.296 189.205C143.138 189.57 141.979 189.936 140.785 190.312C139.252 190.802 139.252 190.802 137.688 191.301C135 192 135 192 131 192C135.722 167.254 135.722 167.254 138.953 156.699C141.349 148.234 143.11 139.59 145 131Z" fill="#FDFEFB"/>
<path d="M357.858 42.8865C358.648 42.8917 359.439 42.8969 360.254 42.9023C361.535 42.9072 361.535 42.9072 362.842 42.9121C363.74 42.9205 364.637 42.9289 365.562 42.9375C366.464 42.942 367.366 42.9465 368.295 42.9512C370.53 42.963 372.765 42.9795 375 43C378.395 52.879 381.533 62.835 384.625 72.8125C385.009 74.0515 385.393 75.2906 385.789 76.5671C387.891 83.3687 389.966 90.1777 392 97C387.38 97 382.76 97 378 97C375 88.25 375 88.25 375 86C368.4 86 361.8 86 355 86C354.67 88.31 354.34 90.62 354 93C353.67 94.32 353.34 95.64 353 97C348.38 97 343.76 97 339 97C341.062 87.3618 343.802 78.1207 347 68.8125C347.878 66.2366 348.752 63.6594 349.625 61.082C350.24 59.2715 350.24 59.2715 350.867 57.4243C352.145 53.5622 353.313 49.6781 354.422 45.7644C355.19 43.421 355.362 43.039 357.858 42.8865Z" fill="#050505"/>
<path d="M263.562 41.75C264.27 41.7407 264.979 41.7313 265.708 41.7217C270.76 41.7521 275.14 42.6223 280 44C280 46.97 280 49.94 280 53C278.933 53.0297 278.933 53.0297 277.844 53.0601C274.625 53.1552 271.406 53.265 268.187 53.375C267.068 53.4059 265.948 53.4369 264.795 53.4688C263.185 53.5268 263.185 53.5268 261.543 53.5859C260.553 53.6174 259.563 53.6488 258.544 53.6812C255.759 53.8377 255.759 53.8377 253 56C251.611 60.3198 251.816 64.8766 251.812 69.375C251.8 70.1046 251.788 70.8342 251.775 71.5859C251.762 76.432 252.406 80.4148 254 85C255.878 86.8782 259.039 86.391 261.562 86.5625C262.76 86.6463 263.958 86.7301 265.191 86.8164C266.582 86.9073 266.582 86.9073 268 87C268 83.04 268 79.08 268 75C265.69 75 263.38 75 261 75C261 72.03 261 69.06 261 66C267.27 66 273.54 66 280 66C280 75.9 280 85.8 280 96C274.626 97.7912 268.874 97.27 263.25 97.3125C261.987 97.3415 260.723 97.3705 259.422 97.4004C252.42 97.4482 247.604 97.3914 242 93C236.863 86.1501 237.783 78.4552 237.75 70.25C237.729 68.9996 237.709 67.7492 237.687 66.4609C237.654 58.6069 237.64 51.7558 243.125 45.625C249.638 41.9438 256.282 41.8163 263.562 41.75Z" fill="#040404"/>
<path d="M451 43C463.54 43 476.08 43 489 43C489 46.3 489 49.6 489 53C481.08 53 473.16 53 465 53C465 56.63 465 60.26 465 64C471.6 64 478.2 64 485 64C485 67.63 485 71.26 485 75C478.4 75 471.8 75 465 75C465 78.63 465 82.26 465 86C472.92 86 480.84 86 489 86C489 89.63 489 93.26 489 97C476.46 97 463.92 97 451 97C451 79.18 451 61.36 451 43Z" fill="#070707"/>
<path d="M343 105C346.3 105 349.6 105 353 105C356.406 111.499 359.12 118.155 361.75 125C362.161 126.061 362.572 127.122 362.996 128.215C364.001 130.809 365.002 133.404 366 136C368.877 129.76 371.667 123.517 374.188 117.125C374.434 116.501 374.681 115.877 374.936 115.234C375.625 113.49 376.313 111.745 377 110C377.666 108.333 378.332 106.666 379 105C382.3 105 385.6 105 389 105C389 119.52 389 134.04 389 149C386.69 149 384.38 149 382 149C381.67 139.1 381.34 129.2 381 119C379.35 123.62 377.7 128.24 376 133C373.312 139.062 373.312 139.062 372.113 141.598C370.984 144.034 369.976 146.499 369 149C367.02 149 365.04 149 363 149C362.697 148.201 362.394 147.402 362.082 146.578C359.531 139.89 356.895 133.252 354.113 126.656C353.048 124.115 352.023 121.558 351 119C350.67 128.9 350.34 138.8 350 149C347.69 149 345.38 149 343 149C343 134.48 343 119.96 343 105Z" fill="#A5C04C"/>
<path d="M458 105C466 105 466 105 467.891 106.555C468.339 107.32 468.788 108.086 469.25 108.875C469.803 109.767 470.356 110.659 470.926 111.578C471.239 112.102 471.551 112.626 471.874 113.166C473.701 116.141 475.667 119.022 477.618 121.917C480.094 125.601 482.544 129.302 485 133C485.33 123.76 485.66 114.52 486 105C488.31 105 490.62 105 493 105C493 119.52 493 134.04 493 149C490.69 149 488.38 149 486 149C483.884 146.785 482.509 145 480.941 142.438C480.507 141.772 480.073 141.106 479.626 140.42C478.248 138.294 476.905 136.148 475.562 134C474.633 132.553 473.701 131.108 472.768 129.664C470.481 126.127 468.243 122.566 466 119C465.67 128.9 465.34 138.8 465 149C462.69 149 460.38 149 458 149C458 134.48 458 119.96 458 105Z" fill="#A6C04E"/>
<path d="M421.285 104.902C422.66 104.92 422.66 104.92 424.062 104.938C424.982 104.947 425.901 104.956 426.848 104.965C427.558 104.976 428.268 104.988 429 105C429.412 106.189 429.825 107.377 430.25 108.602C430.833 110.276 431.416 111.951 432 113.625C432.308 114.509 432.616 115.393 432.934 116.304C435.711 124.238 438.585 132.134 441.51 140.014C441.835 140.899 442.161 141.784 442.496 142.695C442.932 143.871 442.932 143.871 443.377 145.071C444 147 444 147 444 149C441.36 149 438.72 149 436 149C435.496 147.543 434.997 146.084 434.5 144.625C434.222 143.813 433.943 143.001 433.656 142.164C433 140 433 140 433 138C426.73 138 420.46 138 414 138C413.67 139.98 413.34 141.96 413 144C412.378 145.684 411.725 147.358 411 149C408.69 149 406.38 149 404 149C405.365 142.111 407.402 135.753 409.875 129.188C410.594 127.25 411.311 125.313 412.027 123.375C412.369 122.452 412.71 121.529 413.062 120.578C414.582 116.401 415.961 112.185 417.309 107.949C418.271 105.236 418.349 105.028 421.285 104.902Z" fill="#A6C14E"/>
<path d="M265 105C267.64 105 270.28 105 273 105C273 119.52 273 134.04 273 149C270.36 149 267.72 149 265 149C265 142.73 265 136.46 265 130C258.4 130 251.8 130 245 130C245 136.27 245 142.54 245 149C242.69 149 240.38 149 238 149C238 134.81 238 120.62 238 106C240.31 106 242.62 106 245 106C245 111.94 245 117.88 245 124C251.6 124 258.2 124 265 124C265 117.73 265 111.46 265 105Z" fill="#A4BF4B"/>
<path d="M134 27C138.62 27 143.24 27 148 27C148.009 28.2566 148.019 29.5132 148.028 30.8079C148.068 35.4654 148.134 40.1224 148.208 44.7795C148.236 46.7961 148.257 48.8127 148.271 50.8293C148.292 53.7267 148.339 56.6226 148.391 59.5195C148.392 60.4227 148.393 61.326 148.394 62.2565C148.364 67.1887 148.364 67.1887 151.038 71.0925C151.686 71.392 152.333 71.6915 153 72C152.126 73.5131 151.225 75.0102 150.313 76.5C149.814 77.3353 149.315 78.1706 148.801 79.0312C147 81 147 81 144.461 81.3906C141.041 80.8478 139.457 79.3903 137 77C132.983 71.3764 133.859 62.5527 133.902 55.9062C133.904 55.0741 133.905 54.242 133.907 53.3846C133.912 50.7564 133.925 48.1282 133.938 45.5C133.943 43.7057 133.947 41.9115 133.951 40.1172C133.962 35.7448 133.979 31.3724 134 27Z" fill="#090909"/>
<path d="M527.688 104.75C529.131 104.758 529.131 104.758 530.604 104.766C537.69 104.845 537.69 104.845 540 106C540 107.98 540 109.96 540 112C532.74 112 525.48 112 518 112C518 114.97 518 117.94 518 121C520.259 123.259 526.26 122.69 529.479 122.898C535.169 123.431 538.173 124.656 542 129C543.243 134.341 543.217 140.858 540.312 145.687C536.684 149.316 533.493 150.108 528.461 150.23C526.766 150.226 525.07 150.212 523.375 150.187C522.087 150.187 522.087 150.187 520.773 150.186C517.199 150.16 514.42 150.14 511 149C511 147.02 511 145.04 511 143C518.59 142.67 526.18 142.34 534 142C534 139.03 534 136.06 534 133C531.847 130.847 526.834 131.227 523.811 130.926C519.314 130.402 515.829 129.439 512 127C509.763 123.967 509.73 121.202 509.75 117.5C509.745 116.562 509.74 115.623 509.734 114.656C510.126 110.739 511.006 108.881 513.957 106.266C518.509 104.372 522.812 104.644 527.688 104.75Z" fill="#A7C251"/>
<path d="M164 27C168.29 27 172.58 27 177 27C177.074 33.2988 177.129 39.5973 177.165 45.8965C177.18 48.0381 177.2 50.1797 177.226 52.3213C177.263 55.4044 177.28 58.4871 177.293 61.5703C177.308 62.5237 177.324 63.477 177.34 64.4593C177.341 69.7318 177.002 73.4605 174 78C171.506 79.9689 169.547 80.8496 166.5 81.6875C162.779 80.6643 161.798 78.1728 159.918 74.9453C159 73 159 73 159 71C159.971 70.2309 159.971 70.2309 160.962 69.4463C164 65.7996 163.603 62.4728 163.609 57.8594C163.626 56.9772 163.642 56.095 163.659 55.1861C163.708 52.374 163.729 49.5624 163.75 46.75C163.778 44.8411 163.808 42.9323 163.84 41.0234C163.914 36.349 163.963 31.6749 164 27Z" fill="#030303"/>
<path d="M291 106C293.31 106 295.62 106 298 106C298.02 107.019 298.04 108.039 298.06 109.089C298.136 112.865 298.225 116.641 298.317 120.417C298.356 122.052 298.391 123.687 298.422 125.323C298.467 127.671 298.525 130.019 298.586 132.367C298.598 133.101 298.609 133.834 298.621 134.59C298.619 138.75 298.619 138.75 301 142C304.288 142.321 304.288 142.321 308 142.25C309.887 142.258 309.887 142.258 311.813 142.266C315.093 142.338 315.093 142.338 317 140C317.245 137.424 317.373 134.948 317.414 132.367C317.433 131.615 317.453 130.864 317.473 130.089C317.533 127.684 317.579 125.28 317.625 122.875C317.663 121.246 317.702 119.617 317.742 117.988C317.838 113.992 317.922 109.996 318 106C320.31 106 322.62 106 325 106C325.05 110.59 325.086 115.179 325.11 119.77C325.12 121.329 325.134 122.889 325.151 124.448C325.175 126.697 325.187 128.946 325.195 131.195C325.206 131.886 325.216 132.577 325.227 133.289C325.228 137.574 324.688 141.054 323 145C317.997 149.872 313.926 150.162 307.125 150.25C305.335 150.289 305.335 150.289 303.508 150.328C299.634 149.966 297.287 149.051 294 147C290.671 142.006 290.859 137.147 290.902 131.293C290.904 130.568 290.905 129.842 290.907 129.095C290.912 126.792 290.925 124.49 290.938 122.188C290.943 120.62 290.947 119.053 290.951 117.486C290.962 113.658 290.979 109.829 291 106Z" fill="#A4BF4B"/>
<path d="M512 53C515.96 53 519.92 53 524 53C528 57 528 57 528.47 59.7014C528.455 60.7087 528.441 61.7161 528.426 62.7539C528.417 63.8554 528.409 64.9569 528.4 66.0918C528.357 67.8098 528.357 67.8098 528.312 69.5625C528.303 70.7117 528.293 71.8609 528.283 73.0449C528.169 81.4918 528.169 81.4918 527 85C522.518 87.241 517.011 86 512 86C512 75.11 512 64.22 512 53Z" fill="#F5F5F5"/>
<path d="M412 54C416.29 54 420.58 54 425 54C429.106 58.1062 428.183 64.4585 428.188 69.9375C428.2 70.7232 428.212 71.5089 428.225 72.3184C428.236 76.9153 427.907 80.7244 426 85C421.815 87.0923 416.679 86 412 86C412 75.44 412 64.88 412 54Z" fill="#F9F9F9"/>
<path d="M305 53C316.318 52.5079 316.318 52.5079 319.395 54.7266C321.284 57.4016 321.402 58.4315 320.938 61.625C320.843 62.401 320.749 63.177 320.652 63.9766C320 66 320 66 317 68C312.985 68.2687 309.029 68.0866 305 68C305 63.05 305 58.1 305 53Z" fill="#F0F0F0"/>
<path d="M202 38C211.961 37.8047 211.961 37.8047 215 38C217 40 217 40 217.266 42.5312C217.26 43.5109 217.255 44.4906 217.25 45.5C217.255 46.4797 217.26 47.4594 217.266 48.4688C217 51 217 51 215 53C210.656 53.2792 206.356 53.0854 202 53C202 48.05 202 43.1 202 38Z" fill="#F5F5F5"/>
<path d="M257.285 157.902C258.66 157.92 258.66 157.92 260.062 157.938C260.982 157.947 261.901 157.956 262.848 157.965C263.558 157.976 264.268 157.988 265 158C266.239 160.478 266.167 162.237 266.188 165C266.202 165.887 266.216 166.774 266.23 167.688C266 170 266 170 264 172C261.871 172.23 261.871 172.23 259.438 172.188C258.229 172.178 258.229 172.178 256.996 172.168C255 172 255 172 254 171C253.901 169.002 253.87 167 253.875 165C253.872 163.907 253.87 162.814 253.867 161.688C254.047 158.041 254.047 158.041 257.285 157.902Z" fill="#333333"/>
<path d="M491 158C492.646 157.973 494.292 157.954 495.938 157.938C496.854 157.926 497.771 157.914 498.715 157.902C501 158 501 158 502 159C502.099 160.998 502.13 163 502.125 165C502.128 166.093 502.13 167.186 502.133 168.312C502 171 502 171 501 172C499.004 172.203 499.004 172.203 496.563 172.25C495.759 172.276 494.956 172.302 494.129 172.328C493.426 172.22 492.724 172.112 492 172C489.895 168.842 489.747 168.046 489.813 164.438C489.819 163.652 489.825 162.867 489.832 162.059C490 160 490 160 491 158Z" fill="#181818"/>
<path d="M465.438 157.812C466.642 157.791 466.642 157.791 467.871 157.77C470 158 470 158 472 160C472.266 162.059 472.266 162.059 472.25 164.438C472.255 165.22 472.26 166.002 472.266 166.809C472 169 472 169 470 172C467.871 172.328 467.871 172.328 465.438 172.25C464.632 172.235 463.826 172.219 462.996 172.203C461 172 461 172 460 171C459.901 169.002 459.87 167 459.875 165C459.872 163.907 459.87 162.814 459.867 161.688C460.082 157.345 461.502 157.844 465.438 157.812Z" fill="#1A1A1A"/>
<path d="M357 158C358.609 157.938 360.217 157.876 361.875 157.812C362.78 157.778 363.685 157.743 364.617 157.707C365.797 157.852 365.797 157.852 367 158C369.468 161.701 369.307 163.622 369 168C368.34 169.32 367.68 170.64 367 172C363.7 172 360.4 172 357 172C357 167.38 357 162.76 357 158Z" fill="#212121"/>
<path d="M271 158C278.715 157.902 278.715 157.902 281 158C282 159 282 159 282.133 161.688C282.13 162.781 282.128 163.874 282.125 165C282.128 166.093 282.13 167.186 282.133 168.312C282 171 282 171 281 172C277.664 172.143 274.34 172.042 271 172C271 167.38 271 162.76 271 158Z" fill="#0A0A0A"/>
<path d="M364 56C364.66 56 365.32 56 366 56C371 70.7 371 70.7 371 76C367.04 76 363.08 76 359 76C359.671 71.4111 360.761 67.0745 362.062 62.625C362.425 61.3798 362.787 60.1345 363.16 58.8516C363.437 57.9105 363.714 56.9695 364 56Z" fill="#F1F1F1"/>
<path d="M238 158C241.3 158 244.6 158 248 158C249.01 162.67 249.105 166.334 248 171C247 172 247 172 244.934 172.098C241.467 172.049 241.467 172.049 238 172C238 167.38 238 162.76 238 158Z" fill="#0D0D0D"/>
<path d="M423 113C425.654 116.156 426.923 119.152 428.188 123.062C428.532 124.105 428.876 125.148 429.23 126.223C430 129 430 129 430 132C425.71 132 421.42 132 417 132C418.565 125.367 420.064 119.152 423 113Z" fill="#FBFCF8"/>
<path d="M311 158C312.32 158.33 313.64 158.66 315 159C316.522 161.891 317 163.718 317 167C317.66 167 318.32 167 319 167C319.124 166.257 319.248 165.515 319.375 164.75C319.955 162.199 320.737 160.273 322 158C323.32 158 324.64 158 326 158C326 162.62 326 167.24 326 172C325.01 172 324.02 172 323 172C322.67 169.69 322.34 167.38 322 165C321.01 167.31 320.02 169.62 319 172C318.34 172 317.68 172 317 172C316.01 169.69 315.02 167.38 314 165C313.67 167.31 313.34 169.62 313 172C312.34 172 311.68 172 311 172C311 167.38 311 162.76 311 158Z" fill="#232323"/>
<path d="M443 158C447.178 160.089 447.924 161.055 450 165C450.33 162.69 450.66 160.38 451 158C451.99 158 452.98 158 454 158C454 162.62 454 167.24 454 172C450 171 450 171 448.734 169.371C447.823 167.581 446.911 165.79 446 164C445.67 166.64 445.34 169.28 445 172C444.34 172 443.68 172 443 172C443 167.38 443 162.76 443 158Z" fill="#292929"/>
<path d="M340 158C344 159 344 159 346.25 162.062C346.827 163.032 347.405 164.001 348 165C348.33 162.69 348.66 160.38 349 158C349.66 158 350.32 158 351 158C351 162.62 351 167.24 351 172C346.012 169.506 345.487 167.797 343 163C342.67 165.97 342.34 168.94 342 172C341.34 172 340.68 172 340 172C340 167.38 340 162.76 340 158Z" fill="#131313"/>
<path d="M511.164 157.805C512.382 157.839 512.382 157.839 513.625 157.875C514.851 157.902 514.851 157.902 516.102 157.93C517.041 157.964 517.041 157.964 518 158C518 158.66 518 159.32 518 160C515.36 160 512.72 160 510 160C510.33 162.97 510.66 165.94 511 169C512.65 169.33 514.3 169.66 516 170C516 168.68 516 167.36 516 166C515.01 166 514.02 166 513 166C513 165.34 513 164.68 513 164C514.65 164 516.3 164 518 164C518 166.64 518 169.28 518 172C516.542 172.054 515.084 172.093 513.625 172.125C512.813 172.148 512.001 172.171 511.164 172.195C509 172 509 172 507 170C506.734 167.688 506.734 167.688 506.75 165C506.745 164.113 506.74 163.226 506.734 162.312C507.096 159.168 507.967 158.093 511.164 157.805Z" fill="#343434"/>
<path d="M425 158C425.66 158 426.32 158 427 158C427 159.98 427 161.96 427 164C429.31 164 431.62 164 434 164C434 162.02 434 160.04 434 158C434.66 158 435.32 158 436 158C436 162.62 436 167.24 436 172C435.34 172 434.68 172 434 172C434 170.02 434 168.04 434 166C431.69 166 429.38 166 427 166C427 167.98 427 169.96 427 172C426.34 172 425.68 172 425 172C425 167.38 425 162.76 425 158Z" fill="#060606"/>
<path d="M493 160C495 159.957 497 159.959 499 160C500 161 500 161 500.133 162.812C500.13 163.534 500.128 164.256 500.125 165C500.128 165.722 500.13 166.444 500.133 167.187C500 169 500 169 499 170C497 170.041 495 170.043 493 170C493 166.7 493 163.4 493 160Z" fill="#F0F0F0"/>
<path d="M462 160C464 159.957 466 159.959 468 160C469 161 469 161 469.133 162.812C469.13 163.534 469.128 164.256 469.125 165C469.128 165.722 469.13 166.444 469.133 167.187C469 169 469 169 468 170C466 170.041 464 170.043 462 170C462 166.7 462 163.4 462 160Z" fill="#F7F7F7"/>
<path d="M396 158C398.97 158 401.94 158 405 158C405 158.66 405 159.32 405 160C402.69 160 400.38 160 398 160C398 161.32 398 162.64 398 164C399.98 164 401.96 164 404 164C404 164.66 404 165.32 404 166C402.02 166 400.04 166 398 166C398 167.32 398 168.64 398 170C400.31 170 402.62 170 405 170C405 170.66 405 171.32 405 172C402.03 172 399.06 172 396 172C396 167.38 396 162.76 396 158Z" fill="#0F0F0F"/>
<path d="M412 158C413.945 157.707 413.945 157.707 416.125 157.812C417.404 157.874 418.683 157.936 420 158C420 158.66 420 159.32 420 160C417.69 160 415.38 160 413 160C413 163.3 413 166.6 413 170C415.31 170 417.62 170 420 170C420 170.66 420 171.32 420 172C418.721 172.062 417.442 172.124 416.125 172.188C415.406 172.222 414.686 172.257 413.945 172.293C413.303 172.196 412.661 172.1 412 172C410.002 169.003 409.724 168.367 409.75 165C409.745 164.319 409.74 163.639 409.734 162.938C410 161 410 161 412 158Z" fill="#1B1B1B"/>
<path d="M322 158C323.32 158 324.64 158 326 158C326 162.62 326 167.24 326 172C325.01 172 324.02 172 323 172C322.67 169.69 322.34 167.38 322 165C321.34 165.99 320.68 166.98 320 168C319.312 166.375 319.312 166.375 319 164C320.438 160.75 320.438 160.75 322 158Z" fill="#2F2F2F"/>
<path d="M257 160C258.98 160 260.96 160 263 160C263 163.3 263 166.6 263 170C261.02 170 259.04 170 257 170C257 166.7 257 163.4 257 160Z" fill="#FCFCFC"/>
<path d="M523 158C526.161 159.37 526.993 159.989 529 163C529.99 161.35 530.98 159.7 532 158C532.99 158.33 533.98 158.66 535 159C534.361 160.031 533.721 161.062 533.062 162.125C531.183 165.386 530.369 168.22 530 172C529.01 172 528.02 172 527 172C526.897 170.948 526.794 169.896 526.688 168.812C526.018 165.097 525.037 163.1 523 160C523 159.34 523 158.68 523 158Z" fill="#262626"/>
<path d="M360 160C361.65 160 363.3 160 365 160C366 161 366 161 366.133 162.812C366.13 163.534 366.128 164.256 366.125 165C366.128 165.722 366.13 166.444 366.133 167.188C366 169 366 169 365 170C363.35 170 361.7 170 360 170C360 166.7 360 163.4 360 160Z" fill="#FAFAFA"/>
<path d="M274 160C275.65 160 277.3 160 279 160C280 161 280 161 280.133 162.812C280.13 163.534 280.128 164.256 280.125 165C280.128 165.722 280.13 166.444 280.133 167.188C280 169 280 169 279 170C277.35 170 275.7 170 274 170C274 166.7 274 163.4 274 160Z" fill="#F8F8F8"/>
<path d="M380 158C383.63 158 387.26 158 391 158C391 158.66 391 159.32 391 160C389.68 160 388.36 160 387 160C387 163.96 387 167.92 387 172C386.01 172 385.02 172 384 172C384 168.04 384 164.08 384 160C382.68 160 381.36 160 380 160C380 159.34 380 158.68 380 158Z" fill="#2E2E2E"/>
<path d="M287 158C290.399 159.133 291.053 160.125 293 163C293.454 162.175 293.907 161.35 294.375 160.5C294.911 159.675 295.447 158.85 296 158C296.66 158 297.32 158 298 158C296.125 163.875 296.125 163.875 295 165C294.632 167.328 294.298 169.662 294 172C293.01 172 292.02 172 291 172C290.711 170.804 290.423 169.607 290.125 168.375C289.248 164.853 288.2 161.428 287 158Z" fill="#1B1B1B"/>
<path d="M477 158C477.99 158 478.98 158 480 158C480 161.96 480 165.92 480 170C481.98 170 483.96 170 486 170C486 170.66 486 171.32 486 172C483.03 172 480.06 172 477 172C477 167.38 477 162.76 477 158Z" fill="#232323"/>
<path d="M240 158C242.64 158 245.28 158 248 158C248.382 159.656 248.714 161.325 249 163C248 164 248 164 246.152 164.098C244.102 164.065 242.051 164.033 240 164C240 162.02 240 160.04 240 158Z" fill="#242424"/>
<path d="M263 159C263.99 159.33 264.98 159.66 266 160C266.054 161.625 266.093 163.25 266.125 164.875C266.148 165.78 266.171 166.685 266.195 167.617C266 170 266 170 264 172C261.312 172.27 258.709 172.087 256 172C256 171.67 256 171.34 256 171C257.98 170.67 259.96 170.34 262 170C262.33 166.37 262.66 162.74 263 159Z" fill="#0E0E0E"/>
<path d="M381 118C381.33 118 381.66 118 382 118C382 128.23 382 138.46 382 149C381.67 149 381.34 149 381 149C380.67 141.08 380.34 133.16 380 125C379.01 125.495 379.01 125.495 378 126C379.875 119.125 379.875 119.125 381 118Z" fill="#EDF3DD"/>
<path d="M443 158C444.98 158.99 444.98 158.99 447 160C447.33 160.99 447.66 161.98 448 163C447.01 163.495 447.01 163.495 446 164C445.535 165.895 445.535 165.895 445.375 168.062C445.251 169.362 445.127 170.661 445 172C444.34 172 443.68 172 443 172C443 167.38 443 162.76 443 158Z" fill="#141414"/>
<path d="M492 161C492.33 161 492.66 161 493 161C493 163.97 493 166.94 493 170C497.455 169.505 497.455 169.505 502 169C501.67 169.99 501.34 170.98 501 172C498.03 172 495.06 172 492 172C490.74 169.479 491.081 168.146 491.437 165.375C491.539 164.558 491.641 163.74 491.746 162.898C491.83 162.272 491.914 161.645 492 161Z" fill="#272727"/>
<path d="M271 158C274.3 158 277.6 158 281 158C281.33 158.66 281.66 159.32 282 160C278.063 161.312 275.875 160.243 272 159C272 163.29 272 167.58 272 172C271.67 172 271.34 172 271 172C271 167.38 271 162.76 271 158Z" fill="#424242"/>
<path d="M369 161C369.286 168.429 369.286 168.429 367 172C364.69 171.67 362.38 171.34 360 171C360 170.67 360 170.34 360 170C361.65 169.67 363.3 169.34 365 169C365.124 167.866 365.248 166.731 365.375 165.562C365.581 164.387 365.787 163.211 366 162C368 161 368 161 369 161Z" fill="#2E2E2E"/>
<path d="M513 164C514.65 164 516.3 164 518 164C518 166.64 518 169.28 518 172C515.36 172 512.72 172 510 172C510 171.67 510 171.34 510 171C511.98 171 513.96 171 516 171C516 169.35 516 167.7 516 166C515.01 166 514.02 166 513 166C513 165.34 513 164.68 513 164Z" fill="#151515"/>
<path d="M413.848 157.902C415.898 157.935 417.949 157.967 420 158C420 158.66 420 159.32 420 160C417.69 160 415.38 160 413 160C413 162.31 413 164.62 413 167C412.67 167 412.34 167 412 167C411.121 160.848 411.121 160.848 411 159C412 158 412 158 413.848 157.902Z" fill="#232323"/>
<path d="M471 160C471.33 160 471.66 160 472 160C472.054 161.437 472.093 162.875 472.125 164.312C472.148 165.113 472.171 165.914 472.195 166.738C472 169 472 169 470 172C467.69 171.67 465.38 171.34 463 171C463 170.67 463 170.34 463 170C465.31 169.34 467.62 168.68 470 168C470.33 165.36 470.66 162.72 471 160Z" fill="#4F4F4F"/>
<path d="M240 166C241.98 166 243.96 166 246 166C246 167.32 246 168.64 246 170C244.02 170 242.04 170 240 170C240 168.68 240 167.36 240 166Z" fill="#F0F0F0"/>
<path d="M240 160C241.98 160 243.96 160 246 160C245.67 161.32 245.34 162.64 245 164C243.35 164 241.7 164 240 164C240 162.68 240 161.36 240 160Z" fill="#EEEEEE"/>
<path d="M491 159C491.66 159 492.32 159 493 159C492.67 162.63 492.34 166.26 492 170C491.34 169.67 490.68 169.34 490 169C489.973 167.521 489.954 166.042 489.938 164.562C489.926 163.739 489.914 162.915 489.902 162.066C490 160 490 160 491 159Z" fill="#1F1F1F"/>
<path d="M460 161C460.33 161 460.66 161 461 161C461.098 161.626 461.196 162.253 461.297 162.898C461.521 164.124 461.521 164.124 461.75 165.375C461.889 166.187 462.028 166.999 462.172 167.836C462.817 170.177 462.817 170.177 465.078 171.289C465.712 171.524 466.347 171.758 467 172C465 172.043 463 172.041 461 172C460 171 460 171 459.902 168.715C459.914 167.798 459.926 166.882 459.938 165.938C459.947 165.018 459.956 164.099 459.965 163.152C459.976 162.442 459.988 161.732 460 161Z" fill="#0A0A0A"/>
<path d="M263 162C263.33 162 263.66 162 264 162C264.194 163.478 264.38 164.958 264.562 166.438C264.667 167.261 264.771 168.085 264.879 168.934C264.919 169.616 264.959 170.297 265 171C264 172 264 172 262.152 172.098C260.102 172.065 258.051 172.033 256 172C256 171.67 256 171.34 256 171C257.98 170.67 259.96 170.34 262 170C262.33 167.36 262.66 164.72 263 162Z" fill="#242424"/>
<path d="M319 166C320.125 169.75 320.125 169.75 319 172C318.34 172 317.68 172 317 172C316.67 170.35 316.34 168.7 316 167C316.99 166.67 317.98 166.34 319 166Z" fill="#0C0C0C"/>
</g>
<defs>
<clipPath id="clip0_2_148">
<rect width="620" height="220" fill="white"/>
</clipPath>
</defs>
</svg>
