<svg width="77" height="74" viewBox="0 0 77 74" fill="none" xmlns="http://www.w3.org/2000/svg">
<g filter="url(#filter0_d_42_4809)">
<mask id="path-1-inside-1_42_4809" fill="white">
<path d="M10.4531 37C10.4531 22.0883 22.5414 10 37.4531 10H39.4531C54.3648 10 66.4531 22.0883 66.4531 37C66.4531 51.9117 54.3648 64 39.4531 64H37.4531C22.5414 64 10.4531 51.9117 10.4531 37Z"/>
</mask>
<path d="M10.4531 37C10.4531 22.0883 22.5414 10 37.4531 10H39.4531C54.3648 10 66.4531 22.0883 66.4531 37C66.4531 51.9117 54.3648 64 39.4531 64H37.4531C22.5414 64 10.4531 51.9117 10.4531 37Z" fill="#D4AF37" fill-opacity="0.2" shape-rendering="crispEdges"/>
<path d="M37.4531 10V11H39.4531V10V9H37.4531V10ZM39.4531 64V63H37.4531V64V65H39.4531V64ZM37.4531 64V63C23.0937 63 11.4531 51.3594 11.4531 37H10.4531H9.45312C9.45312 52.464 21.9892 65 37.4531 65V64ZM66.4531 37H65.4531C65.4531 51.3594 53.8125 63 39.4531 63V64V65C54.9171 65 67.4531 52.464 67.4531 37H66.4531ZM39.4531 10V11C53.8125 11 65.4531 22.6406 65.4531 37H66.4531H67.4531C67.4531 21.536 54.9171 9 39.4531 9V10ZM37.4531 10V9C21.9892 9 9.45312 21.536 9.45312 37H10.4531H11.4531C11.4531 22.6406 23.0937 11 37.4531 11V10Z" fill="#D4AF37" fill-opacity="0.2" mask="url(#path-1-inside-1_42_4809)"/>
<path d="M46.4531 38.0005C46.4531 43.0004 42.9531 45.5005 38.7932 46.9505C38.5753 47.0243 38.3387 47.0208 38.1231 46.9405C33.9531 45.5005 30.4531 43.0004 30.4531 38.0005V31.0004C30.4531 30.7352 30.5585 30.4809 30.746 30.2933C30.9336 30.1058 31.1879 30.0004 31.4531 30.0004C33.4531 30.0004 35.9531 28.8004 37.6931 27.2804C37.905 27.0994 38.1745 27 38.4531 27C38.7317 27 39.0013 27.0994 39.2132 27.2804C40.9631 28.8104 43.4531 30.0004 45.4532 30.0004C45.7184 30.0004 45.9727 30.1058 46.1602 30.2933C46.3478 30.4809 46.4531 30.7352 46.4531 31.0004V38.0005Z" stroke="#D4AF37" stroke-width="2" stroke-linecap="round" stroke-linejoin="round"/>
</g>
<defs>
<filter id="filter0_d_42_4809" x="0.453125" y="0" width="76" height="74" filterUnits="userSpaceOnUse" color-interpolation-filters="sRGB">
<feFlood flood-opacity="0" result="BackgroundImageFix"/>
<feColorMatrix in="SourceAlpha" type="matrix" values="0 0 0 0 0 0 0 0 0 0 0 0 0 0 0 0 0 0 127 0" result="hardAlpha"/>
<feOffset/>
<feGaussianBlur stdDeviation="5"/>
<feComposite in2="hardAlpha" operator="out"/>
<feColorMatrix type="matrix" values="0 0 0 0 0.831373 0 0 0 0 0.686275 0 0 0 0 0.215686 0 0 0 0.2 0"/>
<feBlend mode="normal" in2="BackgroundImageFix" result="effect1_dropShadow_42_4809"/>
<feBlend mode="normal" in="SourceGraphic" in2="effect1_dropShadow_42_4809" result="shape"/>
</filter>
</defs>
</svg>
