<svg width="77" height="74" viewBox="0 0 77 74" fill="none" xmlns="http://www.w3.org/2000/svg">
<g filter="url(#filter0_d_42_4815)">
<mask id="path-1-inside-1_42_4815" fill="white">
<path d="M10.2773 37C10.2773 22.0883 22.3657 10 37.2773 10H39.2773C54.189 10 66.2773 22.0883 66.2773 37C66.2773 51.9117 54.189 64 39.2773 64H37.2773C22.3657 64 10.2773 51.9117 10.2773 37Z"/>
</mask>
<path d="M10.2773 37C10.2773 22.0883 22.3657 10 37.2773 10H39.2773C54.189 10 66.2773 22.0883 66.2773 37C66.2773 51.9117 54.189 64 39.2773 64H37.2773C22.3657 64 10.2773 51.9117 10.2773 37Z" fill="#D4AF37" fill-opacity="0.2" shape-rendering="crispEdges"/>
<path d="M37.2773 10V11H39.2773V10V9H37.2773V10ZM39.2773 64V63H37.2773V64V65H39.2773V64ZM37.2773 64V63C22.9179 63 11.2773 51.3594 11.2773 37H10.2773H9.27734C9.27734 52.464 21.8134 65 37.2773 65V64ZM66.2773 37H65.2773C65.2773 51.3594 53.6367 63 39.2773 63V64V65C54.7413 65 67.2773 52.464 67.2773 37H66.2773ZM39.2773 10V11C53.6367 11 65.2773 22.6406 65.2773 37H66.2773H67.2773C67.2773 21.536 54.7413 9 39.2773 9V10ZM37.2773 10V9C21.8134 9 9.27734 21.536 9.27734 37H10.2773H11.2773C11.2773 22.6406 22.9179 11 37.2773 11V10Z" fill="#D4AF37" fill-opacity="0.2" mask="url(#path-1-inside-1_42_4815)"/>
<path d="M41.7541 37.8906L43.2691 46.4166C43.2861 46.5171 43.272 46.6201 43.2288 46.7123C43.1854 46.8046 43.1151 46.8813 43.027 46.9324C42.939 46.9835 42.8374 47.0065 42.7359 46.9983C42.6344 46.9901 42.5378 46.9511 42.4591 46.8867L38.8791 44.1996C38.7063 44.0705 38.4963 44.0008 38.2806 44.0008C38.0649 44.0008 37.8549 44.0705 37.6821 44.1996L34.0961 46.8856C34.0174 46.95 33.921 46.9889 33.8196 46.9972C33.7182 47.0053 33.6168 46.9824 33.5288 46.9314C33.4408 46.8805 33.3704 46.804 33.327 46.7119C33.2837 46.6199 33.2694 46.5169 33.2861 46.4166L34.8001 37.8906" stroke="#D4AF37" stroke-width="2" stroke-linecap="round" stroke-linejoin="round"/>
<path d="M38.2773 38.9999C41.591 38.9999 44.2773 36.3137 44.2773 33C44.2773 29.6863 41.591 27 38.2773 27C34.9636 27 32.2773 29.6863 32.2773 33C32.2773 36.3137 34.9636 38.9999 38.2773 38.9999Z" stroke="#D4AF37" stroke-width="2" stroke-linecap="round" stroke-linejoin="round"/>
</g>
<defs>
<filter id="filter0_d_42_4815" x="0.277344" y="0" width="76" height="74" filterUnits="userSpaceOnUse" color-interpolation-filters="sRGB">
<feFlood flood-opacity="0" result="BackgroundImageFix"/>
<feColorMatrix in="SourceAlpha" type="matrix" values="0 0 0 0 0 0 0 0 0 0 0 0 0 0 0 0 0 0 127 0" result="hardAlpha"/>
<feOffset/>
<feGaussianBlur stdDeviation="5"/>
<feComposite in2="hardAlpha" operator="out"/>
<feColorMatrix type="matrix" values="0 0 0 0 0.831373 0 0 0 0 0.686275 0 0 0 0 0.215686 0 0 0 0.2 0"/>
<feBlend mode="normal" in2="BackgroundImageFix" result="effect1_dropShadow_42_4815"/>
<feBlend mode="normal" in="SourceGraphic" in2="effect1_dropShadow_42_4815" result="shape"/>
</filter>
</defs>
</svg>
