<svg width="77" height="74" viewBox="0 0 77 74" fill="none" xmlns="http://www.w3.org/2000/svg">
<g filter="url(#filter0_d_42_4803)">
<mask id="path-1-inside-1_42_4803" fill="white">
<path d="M10.1484 37C10.1484 22.0883 22.2367 10 37.1484 10H39.1484C54.0601 10 66.1484 22.0883 66.1484 37C66.1484 51.9117 54.0601 64 39.1484 64H37.1484C22.2367 64 10.1484 51.9117 10.1484 37Z"/>
</mask>
<path d="M10.1484 37C10.1484 22.0883 22.2367 10 37.1484 10H39.1484C54.0601 10 66.1484 22.0883 66.1484 37C66.1484 51.9117 54.0601 64 39.1484 64H37.1484C22.2367 64 10.1484 51.9117 10.1484 37Z" fill="#D4AF37" fill-opacity="0.2" shape-rendering="crispEdges"/>
<path d="M37.1484 10V11H39.1484V10V9H37.1484V10ZM39.1484 64V63H37.1484V64V65H39.1484V64ZM37.1484 64V63C22.789 63 11.1484 51.3594 11.1484 37H10.1484H9.14844C9.14844 52.464 21.6845 65 37.1484 65V64ZM66.1484 37H65.1484C65.1484 51.3594 53.5078 63 39.1484 63V64V65C54.6124 65 67.1484 52.464 67.1484 37H66.1484ZM39.1484 10V11C53.5078 11 65.1484 22.6406 65.1484 37H66.1484H67.1484C67.1484 21.536 54.6124 9 39.1484 9V10ZM37.1484 10V9C21.6845 9 9.14844 21.536 9.14844 37H10.1484H11.1484C11.1484 22.6406 22.789 11 37.1484 11V10Z" fill="#D4AF37" fill-opacity="0.2" mask="url(#path-1-inside-1_42_4803)"/>
<path d="M28.1484 34.5005C28.1485 33.3877 28.486 32.3011 29.1166 31.3842C29.7471 30.4673 30.641 29.7632 31.68 29.3649C32.7191 28.9667 33.8546 28.893 34.9365 29.1536C36.0183 29.4142 36.9957 29.9968 37.7394 30.8245C37.7918 30.8805 37.8552 30.9252 37.9255 30.9557C37.9959 30.9863 38.0718 31.002 38.1484 31.002C38.2251 31.002 38.3011 30.9863 38.3714 30.9557C38.4417 30.9252 38.5051 30.8805 38.5575 30.8245C39.2989 29.9914 40.2765 29.4039 41.3601 29.1401C42.4437 28.8764 43.5819 28.9489 44.6234 29.348C45.6647 29.7471 46.5598 30.454 47.1896 31.3744C47.8193 32.2949 48.1538 33.3853 48.1485 34.5005C48.1485 36.7905 46.6485 38.5005 45.1485 40.0005L39.6565 45.3135C39.4701 45.5275 39.2404 45.6995 38.9825 45.8178C38.7246 45.9362 38.4444 45.9984 38.1608 46.0002C37.877 46.002 37.5961 45.9434 37.3367 45.8282C37.0774 45.7131 36.8455 45.5442 36.6564 45.3325L31.1484 40.0005C29.6484 38.5005 28.1484 36.8005 28.1484 34.5005Z" stroke="#D4AF37" stroke-width="2" stroke-linecap="round" stroke-linejoin="round"/>
</g>
<defs>
<filter id="filter0_d_42_4803" x="0.148438" y="0" width="76" height="74" filterUnits="userSpaceOnUse" color-interpolation-filters="sRGB">
<feFlood flood-opacity="0" result="BackgroundImageFix"/>
<feColorMatrix in="SourceAlpha" type="matrix" values="0 0 0 0 0 0 0 0 0 0 0 0 0 0 0 0 0 0 127 0" result="hardAlpha"/>
<feOffset/>
<feGaussianBlur stdDeviation="5"/>
<feComposite in2="hardAlpha" operator="out"/>
<feColorMatrix type="matrix" values="0 0 0 0 0.831373 0 0 0 0 0.686275 0 0 0 0 0.215686 0 0 0 0.2 0"/>
<feBlend mode="normal" in2="BackgroundImageFix" result="effect1_dropShadow_42_4803"/>
<feBlend mode="normal" in="SourceGraphic" in2="effect1_dropShadow_42_4803" result="shape"/>
</filter>
</defs>
</svg>
