<svg width="77" height="74" viewBox="0 0 77 74" fill="none" xmlns="http://www.w3.org/2000/svg">
<g filter="url(#filter0_d_42_4829)">
<mask id="path-1-inside-1_42_4829" fill="white">
<path d="M10.6016 37C10.6016 22.0883 22.6899 10 37.6016 10H39.6016C54.5133 10 66.6016 22.0883 66.6016 37C66.6016 51.9117 54.5133 64 39.6016 64H37.6016C22.6899 64 10.6016 51.9117 10.6016 37Z"/>
</mask>
<path d="M10.6016 37C10.6016 22.0883 22.6899 10 37.6016 10H39.6016C54.5133 10 66.6016 22.0883 66.6016 37C66.6016 51.9117 54.5133 64 39.6016 64H37.6016C22.6899 64 10.6016 51.9117 10.6016 37Z" fill="#D4AF37" fill-opacity="0.2" shape-rendering="crispEdges"/>
<path d="M37.6016 10V11H39.6016V10V9H37.6016V10ZM39.6016 64V63H37.6016V64V65H39.6016V64ZM37.6016 64V63C23.2422 63 11.6016 51.3594 11.6016 37H10.6016H9.60156C9.60156 52.464 22.1376 65 37.6016 65V64ZM66.6016 37H65.6016C65.6016 51.3594 53.961 63 39.6016 63V64V65C55.0655 65 67.6016 52.464 67.6016 37H66.6016ZM39.6016 10V11C53.961 11 65.6016 22.6406 65.6016 37H66.6016H67.6016C67.6016 21.536 55.0655 9 39.6016 9V10ZM37.6016 10V9C22.1376 9 9.60156 21.536 9.60156 37H10.6016H11.6016C11.6016 22.6406 23.2422 11 37.6016 11V10Z" fill="#D4AF37" fill-opacity="0.2" mask="url(#path-1-inside-1_42_4829)"/>
<path d="M28.6016 34.5005C28.6016 33.3877 28.9392 32.3011 29.5697 31.3842C30.2002 30.4673 31.0941 29.7632 32.1332 29.3649C33.1723 28.9667 34.3077 28.893 35.3896 29.1536C36.4714 29.4142 37.4488 29.9968 38.1926 30.8245C38.245 30.8805 38.3083 30.9252 38.3786 30.9557C38.449 30.9863 38.5249 31.002 38.6016 31.002C38.6782 31.002 38.7542 30.9863 38.8245 30.9557C38.8948 30.9252 38.9582 30.8805 39.0106 30.8245C39.752 29.9914 40.7296 29.4039 41.8132 29.1401C42.8968 28.8764 44.035 28.9489 45.0765 29.348C46.1179 29.7471 47.0129 30.454 47.6427 31.3744C48.2725 32.2949 48.6069 33.3853 48.6016 34.5005C48.6016 36.7905 47.1016 38.5005 45.6016 40.0005L40.1096 45.3135C39.9232 45.5275 39.6935 45.6995 39.4357 45.8178C39.1778 45.9362 38.8976 45.9984 38.6139 46.0002C38.3301 46.002 38.0492 45.9434 37.7899 45.8282C37.5305 45.7131 37.2986 45.5442 37.1096 45.3325L31.6016 40.0005C30.1016 38.5005 28.6016 36.8005 28.6016 34.5005Z" stroke="#D4AF37" stroke-width="2" stroke-linecap="round" stroke-linejoin="round"/>
</g>
<defs>
<filter id="filter0_d_42_4829" x="0.601562" y="0" width="76" height="74" filterUnits="userSpaceOnUse" color-interpolation-filters="sRGB">
<feFlood flood-opacity="0" result="BackgroundImageFix"/>
<feColorMatrix in="SourceAlpha" type="matrix" values="0 0 0 0 0 0 0 0 0 0 0 0 0 0 0 0 0 0 127 0" result="hardAlpha"/>
<feOffset/>
<feGaussianBlur stdDeviation="5"/>
<feComposite in2="hardAlpha" operator="out"/>
<feColorMatrix type="matrix" values="0 0 0 0 0.831373 0 0 0 0 0.686275 0 0 0 0 0.215686 0 0 0 0.2 0"/>
<feBlend mode="normal" in2="BackgroundImageFix" result="effect1_dropShadow_42_4829"/>
<feBlend mode="normal" in="SourceGraphic" in2="effect1_dropShadow_42_4829" result="shape"/>
</filter>
</defs>
</svg>
