<svg width="77" height="74" viewBox="0 0 77 74" fill="none" xmlns="http://www.w3.org/2000/svg">
<g filter="url(#filter0_d_42_4789)">
<mask id="path-1-inside-1_42_4789" fill="white">
<path d="M10.8242 37C10.8242 22.0883 22.9125 10 37.8242 10H39.8242C54.7359 10 66.8242 22.0883 66.8242 37C66.8242 51.9117 54.7359 64 39.8242 64H37.8242C22.9125 64 10.8242 51.9117 10.8242 37Z"/>
</mask>
<path d="M10.8242 37C10.8242 22.0883 22.9125 10 37.8242 10H39.8242C54.7359 10 66.8242 22.0883 66.8242 37C66.8242 51.9117 54.7359 64 39.8242 64H37.8242C22.9125 64 10.8242 51.9117 10.8242 37Z" fill="#D4AF37" fill-opacity="0.2" shape-rendering="crispEdges"/>
<path d="M37.8242 10V11H39.8242V10V9H37.8242V10ZM39.8242 64V63H37.8242V64V65H39.8242V64ZM37.8242 64V63C23.4648 63 11.8242 51.3594 11.8242 37H10.8242H9.82422C9.82422 52.464 22.3602 65 37.8242 65V64ZM66.8242 37H65.8242C65.8242 51.3594 54.1836 63 39.8242 63V64V65C55.2882 65 67.8242 52.464 67.8242 37H66.8242ZM39.8242 10V11C54.1836 11 65.8242 22.6406 65.8242 37H66.8242H67.8242C67.8242 21.536 55.2882 9 39.8242 9V10ZM37.8242 10V9C22.3602 9 9.82422 21.536 9.82422 37H10.8242H11.8242C11.8242 22.6406 23.4648 11 37.8242 11V10Z" fill="#D4AF37" fill-opacity="0.2" mask="url(#path-1-inside-1_42_4789)"/>
<path d="M42.301 37.8906L43.816 46.4166C43.833 46.5171 43.8188 46.6201 43.7756 46.7123C43.7323 46.8046 43.662 46.8813 43.5739 46.9324C43.4858 46.9835 43.3843 47.0065 43.2828 46.9983C43.1813 46.9901 43.0847 46.9511 43.006 46.8867L39.426 44.1996C39.2532 44.0705 39.0432 44.0008 38.8274 44.0008C38.6117 44.0008 38.4018 44.0705 38.229 44.1996L34.643 46.8856C34.5643 46.95 34.4678 46.9889 34.3665 46.9972C34.2651 47.0053 34.1636 46.9824 34.0756 46.9314C33.9876 46.8805 33.9172 46.804 33.8739 46.7119C33.8305 46.6199 33.8163 46.5169 33.833 46.4166L35.347 37.8906" stroke="#D4AF37" stroke-width="2" stroke-linecap="round" stroke-linejoin="round"/>
<path d="M38.8242 38.9999C42.1379 38.9999 44.8242 36.3137 44.8242 33C44.8242 29.6863 42.1379 27 38.8242 27C35.5105 27 32.8242 29.6863 32.8242 33C32.8242 36.3137 35.5105 38.9999 38.8242 38.9999Z" stroke="#D4AF37" stroke-width="2" stroke-linecap="round" stroke-linejoin="round"/>
</g>
<defs>
<filter id="filter0_d_42_4789" x="0.824219" y="0" width="76" height="74" filterUnits="userSpaceOnUse" color-interpolation-filters="sRGB">
<feFlood flood-opacity="0" result="BackgroundImageFix"/>
<feColorMatrix in="SourceAlpha" type="matrix" values="0 0 0 0 0 0 0 0 0 0 0 0 0 0 0 0 0 0 127 0" result="hardAlpha"/>
<feOffset/>
<feGaussianBlur stdDeviation="5"/>
<feComposite in2="hardAlpha" operator="out"/>
<feColorMatrix type="matrix" values="0 0 0 0 0.831373 0 0 0 0 0.686275 0 0 0 0 0.215686 0 0 0 0.2 0"/>
<feBlend mode="normal" in2="BackgroundImageFix" result="effect1_dropShadow_42_4789"/>
<feBlend mode="normal" in="SourceGraphic" in2="effect1_dropShadow_42_4789" result="shape"/>
</filter>
</defs>
</svg>
