<svg width="76" height="74" viewBox="0 0 76 74" fill="none" xmlns="http://www.w3.org/2000/svg">
<g filter="url(#filter0_d_42_4783)">
<mask id="path-1-inside-1_42_4783" fill="white">
<path d="M10 37C10 22.0883 22.0883 10 37 10H39C53.9117 10 66 22.0883 66 37C66 51.9117 53.9117 64 39 64H37C22.0883 64 10 51.9117 10 37Z"/>
</mask>
<path d="M10 37C10 22.0883 22.0883 10 37 10H39C53.9117 10 66 22.0883 66 37C66 51.9117 53.9117 64 39 64H37C22.0883 64 10 51.9117 10 37Z" fill="#D4AF37" fill-opacity="0.2" shape-rendering="crispEdges"/>
<path d="M37 10V11H39V10V9H37V10ZM39 64V63H37V64V65H39V64ZM37 64V63C22.6406 63 11 51.3594 11 37H10H9C9 52.464 21.536 65 37 65V64ZM66 37H65C65 51.3594 53.3594 63 39 63V64V65C54.464 65 67 52.464 67 37H66ZM39 10V11C53.3594 11 65 22.6406 65 37H66H67C67 21.536 54.464 9 39 9V10ZM37 10V9C21.536 9 9 21.536 9 37H10H11C11 22.6406 22.6406 11 37 11V10Z" fill="#D4AF37" fill-opacity="0.2" mask="url(#path-1-inside-1_42_4783)"/>
<path d="M46 38.0005C46 43.0004 42.5 45.5005 38.3401 46.9505C38.1221 47.0243 37.8855 47.0208 37.67 46.9405C33.5 45.5005 30 43.0004 30 38.0005V31.0004C30 30.7352 30.1054 30.4809 30.2929 30.2933C30.4804 30.1058 30.7348 30.0004 31 30.0004C33 30.0004 35.5 28.8004 37.24 27.2804C37.4519 27.0994 37.7214 27 38 27C38.2786 27 38.5481 27.0994 38.7601 27.2804C40.51 28.8104 43 30.0004 45.0001 30.0004C45.2653 30.0004 45.5195 30.1058 45.7071 30.2933C45.8947 30.4809 46 30.7352 46 31.0004V38.0005Z" stroke="#D4AF37" stroke-width="2" stroke-linecap="round" stroke-linejoin="round"/>
</g>
<defs>
<filter id="filter0_d_42_4783" x="0" y="0" width="76" height="74" filterUnits="userSpaceOnUse" color-interpolation-filters="sRGB">
<feFlood flood-opacity="0" result="BackgroundImageFix"/>
<feColorMatrix in="SourceAlpha" type="matrix" values="0 0 0 0 0 0 0 0 0 0 0 0 0 0 0 0 0 0 127 0" result="hardAlpha"/>
<feOffset/>
<feGaussianBlur stdDeviation="5"/>
<feComposite in2="hardAlpha" operator="out"/>
<feColorMatrix type="matrix" values="0 0 0 0 0.831373 0 0 0 0 0.686275 0 0 0 0 0.215686 0 0 0 0.2 0"/>
<feBlend mode="normal" in2="BackgroundImageFix" result="effect1_dropShadow_42_4783"/>
<feBlend mode="normal" in="SourceGraphic" in2="effect1_dropShadow_42_4783" result="shape"/>
</filter>
</defs>
</svg>
